<mxfile host="app.diagrams.net" agent="Mozilla/5.0 (Windows NT 10.0; Win64; x64) AppleWebKit/537.36 (KHTML, like Gecko) Chrome/137.0.0.0 Safari/537.36" version="26.2.14">
  <diagram id="nPrbaPytp_9vwMqdARKt" name="Página-1">
    <mxGraphModel dx="1075" dy="1802" grid="1" gridSize="10" guides="1" tooltips="1" connect="1" arrows="1" fold="1" page="1" pageScale="1" pageWidth="827" pageHeight="1169" math="0" shadow="0">
      <root>
        <mxCell id="WIyWlLk6GJQsqaUBKTNV-0" />
        <mxCell id="WIyWlLk6GJQsqaUBKTNV-1" parent="WIyWlLk6GJQsqaUBKTNV-0" />
        <mxCell id="4O37cZlF4Homk0dJ1W0X-19" style="edgeStyle=orthogonalEdgeStyle;rounded=0;orthogonalLoop=1;jettySize=auto;html=1;endArrow=none;startFill=0;exitX=0;exitY=0.5;exitDx=0;exitDy=0;" parent="WIyWlLk6GJQsqaUBKTNV-1" source="zkfFHV4jXpPFQw0GAbJ--19" target="WocVs_nFNmPU2-qUiD_d-23" edge="1">
          <mxGeometry relative="1" as="geometry">
            <Array as="points">
              <mxPoint x="404" y="437" />
            </Array>
          </mxGeometry>
        </mxCell>
        <mxCell id="4O37cZlF4Homk0dJ1W0X-20" value="1...1" style="edgeLabel;html=1;align=center;verticalAlign=middle;resizable=0;points=[];" parent="4O37cZlF4Homk0dJ1W0X-19" vertex="1" connectable="0">
          <mxGeometry x="-0.0547" y="3" relative="1" as="geometry">
            <mxPoint x="-7" y="-3" as="offset" />
          </mxGeometry>
        </mxCell>
        <mxCell id="4O37cZlF4Homk0dJ1W0X-24" style="edgeStyle=orthogonalEdgeStyle;rounded=0;orthogonalLoop=1;jettySize=auto;html=1;entryX=0;entryY=0.5;entryDx=0;entryDy=0;endArrow=none;startFill=0;" parent="WIyWlLk6GJQsqaUBKTNV-1" source="zkfFHV4jXpPFQw0GAbJ--17" target="WocVs_nFNmPU2-qUiD_d-14" edge="1">
          <mxGeometry relative="1" as="geometry">
            <Array as="points">
              <mxPoint x="594" y="440" />
              <mxPoint x="594" y="566" />
            </Array>
          </mxGeometry>
        </mxCell>
        <mxCell id="4O37cZlF4Homk0dJ1W0X-25" value="1...1" style="edgeLabel;html=1;align=center;verticalAlign=middle;resizable=0;points=[];" parent="4O37cZlF4Homk0dJ1W0X-24" vertex="1" connectable="0">
          <mxGeometry x="0.0632" y="1" relative="1" as="geometry">
            <mxPoint as="offset" />
          </mxGeometry>
        </mxCell>
        <mxCell id="zkfFHV4jXpPFQw0GAbJ--17" value="Fuero" style="swimlane;fontStyle=0;align=center;verticalAlign=top;childLayout=stackLayout;horizontal=1;startSize=26;horizontalStack=0;resizeParent=1;resizeLast=0;collapsible=1;marginBottom=0;rounded=0;shadow=0;strokeWidth=2;fillColor=#FFFFFF;perimeterSpacing=0;swimlaneLine=1;swimlaneFillColor=#FFFFFF;" parent="WIyWlLk6GJQsqaUBKTNV-1" vertex="1">
          <mxGeometry x="404" y="380" width="160" height="120" as="geometry">
            <mxRectangle x="550" y="140" width="160" height="26" as="alternateBounds" />
          </mxGeometry>
        </mxCell>
        <mxCell id="zkfFHV4jXpPFQw0GAbJ--18" value="codigo" style="text;align=left;verticalAlign=top;spacingLeft=4;spacingRight=4;overflow=hidden;rotatable=0;points=[[0,0.5],[1,0.5]];portConstraint=eastwest;fillColor=none;strokeWidth=0.5;strokeColor=default;" parent="zkfFHV4jXpPFQw0GAbJ--17" vertex="1">
          <mxGeometry y="26" width="160" height="26" as="geometry" />
        </mxCell>
        <mxCell id="zkfFHV4jXpPFQw0GAbJ--19" value="descripcion" style="text;align=left;verticalAlign=top;spacingLeft=4;spacingRight=4;overflow=hidden;rotatable=0;points=[[0,0.5],[1,0.5]];portConstraint=eastwest;rounded=0;shadow=0;html=0;fillColor=none;" parent="zkfFHV4jXpPFQw0GAbJ--17" vertex="1">
          <mxGeometry y="52" width="160" height="26" as="geometry" />
        </mxCell>
        <mxCell id="zkfFHV4jXpPFQw0GAbJ--23" value="" style="line;html=1;strokeWidth=2;align=left;verticalAlign=middle;spacingTop=-1;spacingLeft=3;spacingRight=3;rotatable=0;labelPosition=right;points=[];portConstraint=eastwest;" parent="zkfFHV4jXpPFQw0GAbJ--17" vertex="1">
          <mxGeometry y="78" width="160" height="8" as="geometry" />
        </mxCell>
        <mxCell id="zkfFHV4jXpPFQw0GAbJ--24" value="cargaDatos" style="text;align=left;verticalAlign=top;spacingLeft=4;spacingRight=4;overflow=hidden;rotatable=0;points=[[0,0.5],[1,0.5]];portConstraint=eastwest;fillColor=none;" parent="zkfFHV4jXpPFQw0GAbJ--17" vertex="1">
          <mxGeometry y="86" width="160" height="26" as="geometry" />
        </mxCell>
        <mxCell id="WocVs_nFNmPU2-qUiD_d-0" value="&lt;font style=&quot;font-size: 18px;&quot;&gt;Un estudio jurídico desea desarrollar un sistema que le permita administrar las causas que&lt;br&gt;lleva adelante y liquidar los haberes a los abogados que trabajan en dichas causas, en&lt;br&gt;función de los fallos que obtengan en las mismas.&lt;/font&gt;&lt;div&gt;&lt;font style=&quot;font-size: 18px;&quot;&gt;&lt;br&gt;Cuenta con un staff de abogados de los cuales maneja los siguientes datos: un código de&lt;br&gt;identificación (número correlativo asignado automáticamente por el sistema), apellido,&lt;br&gt;nombres, tipo y nro. de documento, domicilio, teléfono, dirección de e-mail, su especialidad&lt;br&gt;(fuero) y las causas que tiene asignadas. Algunos abogados cobran un monto fijo por cada&lt;br&gt;causa con fallo favorable y otros un porcentaje del monto obtenido. Estos montos fijos y&lt;br&gt;porcentuales NO son iguales para todos los abogados.&lt;br&gt;&lt;br&gt;&lt;/font&gt;&lt;/div&gt;&lt;div&gt;&lt;font style=&quot;font-size: 18px;&quot;&gt;Las causas se abren por la acción del demandante que se presenta en el estudio y decide,&lt;br&gt;con el asesoramiento de los abogados, iniciar una demanda en uno de los fueros&lt;br&gt;procesales. Los fueros están cargados en el sistema y se conoce su código y descripción&lt;br&gt;(ejemplos de fueron son: civil, penal, comercial, laboral, etc.). Cada causa iniciada tendrá:&lt;br&gt;número de expediente, fecha de inicio, juzgado de radicación, fuero, nombre y apellido del&lt;br&gt;demandante, nombre y apellido del demandado, detalle de los motivos que originan la&lt;br&gt;demanda y el abogado asignado.&lt;br&gt;&lt;br&gt;&lt;/font&gt;&lt;/div&gt;&lt;div&gt;&lt;font style=&quot;font-size: 18px;&quot;&gt;El estudio decide que abogado llevará la causa adelante considerando: que debe dedicarse&lt;br&gt;a la misma especialidad (fuero) de la causa y sea aquel que menos causas abiertas tenga al&lt;br&gt;momento (en caso de existir más de uno se le asignará a cualquiera de ellos).&lt;br&gt;&lt;br&gt;&lt;/font&gt;&lt;/div&gt;&lt;div&gt;&lt;font style=&quot;font-size: 18px;&quot;&gt;Las causas siguen su curso y al finalizar, se registra su cierre indicando la fecha del mismo,&lt;br&gt;sentencia obtenida (favorable o no favorable) y en caso de corresponder el monto obtenido.&lt;br&gt;Periódicamente, el estudio realiza la liquidación de los haberes de los abogados, en función&lt;br&gt;de los fallos favorables obtenidos en causas cerradas en un periodo determinado. El listado&lt;br&gt;debe contener: número de expediente, fecha de inicio, fecha de cierre, fuero, nombre y&lt;br&gt;apellido del abogado, monto obtenido en la causa y monto a liquidar al abogado.&lt;/font&gt;&lt;/div&gt;" style="text;whiteSpace=wrap;html=1;" parent="WIyWlLk6GJQsqaUBKTNV-1" vertex="1">
          <mxGeometry x="30" y="-1110" width="770" height="1060" as="geometry" />
        </mxCell>
        <mxCell id="WocVs_nFNmPU2-qUiD_d-1" value="Estudio" style="swimlane;fontStyle=0;align=center;verticalAlign=top;childLayout=stackLayout;horizontal=1;startSize=26;horizontalStack=0;resizeParent=1;resizeLast=0;collapsible=1;marginBottom=0;rounded=0;shadow=0;strokeWidth=2;swimlaneFillColor=#FFFFFF;" parent="WIyWlLk6GJQsqaUBKTNV-1" vertex="1">
          <mxGeometry x="384" y="20" width="160" height="272" as="geometry">
            <mxRectangle x="550" y="140" width="160" height="26" as="alternateBounds" />
          </mxGeometry>
        </mxCell>
        <mxCell id="WocVs_nFNmPU2-qUiD_d-2" value="abogados" style="text;align=left;verticalAlign=top;spacingLeft=4;spacingRight=4;overflow=hidden;rotatable=0;points=[[0,0.5],[1,0.5]];portConstraint=eastwest;fillColor=none;strokeWidth=0.5;strokeColor=default;" parent="WocVs_nFNmPU2-qUiD_d-1" vertex="1">
          <mxGeometry y="26" width="160" height="26" as="geometry" />
        </mxCell>
        <mxCell id="WocVs_nFNmPU2-qUiD_d-3" value="causas" style="text;align=left;verticalAlign=top;spacingLeft=4;spacingRight=4;overflow=hidden;rotatable=0;points=[[0,0.5],[1,0.5]];portConstraint=eastwest;rounded=0;shadow=0;html=0;fillColor=none;strokeWidth=0.5;strokeColor=default;" parent="WocVs_nFNmPU2-qUiD_d-1" vertex="1">
          <mxGeometry y="52" width="160" height="26" as="geometry" />
        </mxCell>
        <mxCell id="wk-J22gKXtRtqj58cMsg-0" value="fueros" style="text;align=left;verticalAlign=top;spacingLeft=4;spacingRight=4;overflow=hidden;rotatable=0;points=[[0,0.5],[1,0.5]];portConstraint=eastwest;rounded=0;shadow=0;html=0;fillColor=none;strokeWidth=1;" vertex="1" parent="WocVs_nFNmPU2-qUiD_d-1">
          <mxGeometry y="78" width="160" height="26" as="geometry" />
        </mxCell>
        <mxCell id="WocVs_nFNmPU2-qUiD_d-7" value="" style="line;html=1;strokeWidth=2;align=left;verticalAlign=middle;spacingTop=-1;spacingLeft=3;spacingRight=3;rotatable=0;labelPosition=right;points=[];portConstraint=eastwest;" parent="WocVs_nFNmPU2-qUiD_d-1" vertex="1">
          <mxGeometry y="104" width="160" height="8" as="geometry" />
        </mxCell>
        <mxCell id="WocVs_nFNmPU2-qUiD_d-8" value="inicializador" style="text;align=left;verticalAlign=top;spacingLeft=4;spacingRight=4;overflow=hidden;rotatable=0;points=[[0,0.5],[1,0.5]];portConstraint=eastwest;fillColor=none;strokeColor=none;strokeWidth=0.5;" parent="WocVs_nFNmPU2-qUiD_d-1" vertex="1">
          <mxGeometry y="112" width="160" height="26" as="geometry" />
        </mxCell>
        <mxCell id="wk-J22gKXtRtqj58cMsg-1" value="cargarAbogado" style="text;align=left;verticalAlign=top;spacingLeft=4;spacingRight=4;overflow=hidden;rotatable=0;points=[[0,0.5],[1,0.5]];portConstraint=eastwest;fillColor=none;strokeColor=default;strokeWidth=0.5;" vertex="1" parent="WocVs_nFNmPU2-qUiD_d-1">
          <mxGeometry y="138" width="160" height="26" as="geometry" />
        </mxCell>
        <mxCell id="4O37cZlF4Homk0dJ1W0X-21" value="liquidarHaberes" style="text;align=left;verticalAlign=top;spacingLeft=4;spacingRight=4;overflow=hidden;rotatable=0;points=[[0,0.5],[1,0.5]];portConstraint=eastwest;fillColor=none;strokeColor=default;strokeWidth=0.5;" parent="WocVs_nFNmPU2-qUiD_d-1" vertex="1">
          <mxGeometry y="164" width="160" height="26" as="geometry" />
        </mxCell>
        <mxCell id="4O37cZlF4Homk0dJ1W0X-27" value="iniciarCausa" style="text;align=left;verticalAlign=top;spacingLeft=4;spacingRight=4;overflow=hidden;rotatable=0;points=[[0,0.5],[1,0.5]];portConstraint=eastwest;fillColor=none;strokeColor=default;strokeWidth=0.5;" parent="WocVs_nFNmPU2-qUiD_d-1" vertex="1">
          <mxGeometry y="190" width="160" height="30" as="geometry" />
        </mxCell>
        <mxCell id="4O37cZlF4Homk0dJ1W0X-23" value="asignarCausa" style="text;align=left;verticalAlign=top;spacingLeft=4;spacingRight=4;overflow=hidden;rotatable=0;points=[[0,0.5],[1,0.5]];portConstraint=eastwest;fillColor=none;strokeColor=default;strokeWidth=0.5;" parent="WocVs_nFNmPU2-qUiD_d-1" vertex="1">
          <mxGeometry y="220" width="160" height="26" as="geometry" />
        </mxCell>
        <mxCell id="4O37cZlF4Homk0dJ1W0X-26" value="cerrarCausa" style="text;align=left;verticalAlign=top;spacingLeft=4;spacingRight=4;overflow=hidden;rotatable=0;points=[[0,0.5],[1,0.5]];portConstraint=eastwest;fillColor=none;" parent="WocVs_nFNmPU2-qUiD_d-1" vertex="1">
          <mxGeometry y="246" width="160" height="26" as="geometry" />
        </mxCell>
        <mxCell id="WocVs_nFNmPU2-qUiD_d-58" style="edgeStyle=orthogonalEdgeStyle;rounded=0;orthogonalLoop=1;jettySize=auto;html=1;entryX=0;entryY=0.5;entryDx=0;entryDy=0;endArrow=none;startFill=0;" parent="WIyWlLk6GJQsqaUBKTNV-1" source="WocVs_nFNmPU2-qUiD_d-19" target="WocVs_nFNmPU2-qUiD_d-2" edge="1">
          <mxGeometry relative="1" as="geometry" />
        </mxCell>
        <mxCell id="WocVs_nFNmPU2-qUiD_d-68" value="1...N" style="edgeLabel;html=1;align=center;verticalAlign=middle;resizable=0;points=[];shadow=0;strokeColor=#000000;" parent="WocVs_nFNmPU2-qUiD_d-58" vertex="1" connectable="0">
          <mxGeometry x="-0.6131" y="-1" relative="1" as="geometry">
            <mxPoint y="-1" as="offset" />
          </mxGeometry>
        </mxCell>
        <mxCell id="WocVs_nFNmPU2-qUiD_d-19" value="Abogado" style="swimlane;fontStyle=0;align=center;verticalAlign=top;childLayout=stackLayout;horizontal=1;startSize=26;horizontalStack=0;resizeParent=1;resizeLast=0;collapsible=1;marginBottom=0;rounded=0;shadow=0;strokeWidth=2;fillColor=#FFFFFF;swimlaneFillColor=#FFFFFF;" parent="WIyWlLk6GJQsqaUBKTNV-1" vertex="1">
          <mxGeometry x="144" y="320" width="160" height="326" as="geometry">
            <mxRectangle x="550" y="140" width="160" height="26" as="alternateBounds" />
          </mxGeometry>
        </mxCell>
        <mxCell id="WocVs_nFNmPU2-qUiD_d-20" value="id" style="text;align=left;verticalAlign=top;spacingLeft=4;spacingRight=4;overflow=hidden;rotatable=0;points=[[0,0.5],[1,0.5]];portConstraint=eastwest;fillColor=none;strokeColor=default;strokeWidth=0.5;" parent="WocVs_nFNmPU2-qUiD_d-19" vertex="1">
          <mxGeometry y="26" width="160" height="26" as="geometry" />
        </mxCell>
        <mxCell id="WocVs_nFNmPU2-qUiD_d-21" value="apellido" style="text;align=left;verticalAlign=top;spacingLeft=4;spacingRight=4;overflow=hidden;rotatable=0;points=[[0,0.5],[1,0.5]];portConstraint=eastwest;rounded=0;shadow=0;html=0;fillColor=none;strokeColor=default;strokeWidth=0.5;" parent="WocVs_nFNmPU2-qUiD_d-19" vertex="1">
          <mxGeometry y="52" width="160" height="26" as="geometry" />
        </mxCell>
        <mxCell id="WocVs_nFNmPU2-qUiD_d-22" value="nombre" style="text;align=left;verticalAlign=top;spacingLeft=4;spacingRight=4;overflow=hidden;rotatable=0;points=[[0,0.5],[1,0.5]];portConstraint=eastwest;rounded=0;shadow=0;html=0;fillColor=none;strokeColor=default;strokeWidth=0.5;" parent="WocVs_nFNmPU2-qUiD_d-19" vertex="1">
          <mxGeometry y="78" width="160" height="26" as="geometry" />
        </mxCell>
        <mxCell id="WocVs_nFNmPU2-qUiD_d-23" value="dniNumero" style="text;align=left;verticalAlign=top;spacingLeft=4;spacingRight=4;overflow=hidden;rotatable=0;points=[[0,0.5],[1,0.5]];portConstraint=eastwest;rounded=0;shadow=0;html=0;fillColor=none;strokeColor=default;strokeWidth=0.5;" parent="WocVs_nFNmPU2-qUiD_d-19" vertex="1">
          <mxGeometry y="104" width="160" height="26" as="geometry" />
        </mxCell>
        <mxCell id="4O37cZlF4Homk0dJ1W0X-4" value="dniTipo" style="text;align=left;verticalAlign=top;spacingLeft=4;spacingRight=4;overflow=hidden;rotatable=0;points=[[0,0.5],[1,0.5]];portConstraint=eastwest;rounded=0;shadow=0;html=0;fillColor=none;strokeColor=default;strokeWidth=0.5;" parent="WocVs_nFNmPU2-qUiD_d-19" vertex="1">
          <mxGeometry y="130" width="160" height="26" as="geometry" />
        </mxCell>
        <mxCell id="WocVs_nFNmPU2-qUiD_d-24" value="domicilio" style="text;align=left;verticalAlign=top;spacingLeft=4;spacingRight=4;overflow=hidden;rotatable=0;points=[[0,0.5],[1,0.5]];portConstraint=eastwest;rounded=0;shadow=0;html=0;fillColor=none;strokeColor=default;strokeWidth=0.5;" parent="WocVs_nFNmPU2-qUiD_d-19" vertex="1">
          <mxGeometry y="156" width="160" height="26" as="geometry" />
        </mxCell>
        <mxCell id="WocVs_nFNmPU2-qUiD_d-26" value="telefono" style="text;align=left;verticalAlign=top;spacingLeft=4;spacingRight=4;overflow=hidden;rotatable=0;points=[[0,0.5],[1,0.5]];portConstraint=eastwest;fillColor=none;strokeColor=default;strokeWidth=0.5;" parent="WocVs_nFNmPU2-qUiD_d-19" vertex="1">
          <mxGeometry y="182" width="160" height="26" as="geometry" />
        </mxCell>
        <mxCell id="WocVs_nFNmPU2-qUiD_d-27" value="email" style="text;align=left;verticalAlign=top;spacingLeft=4;spacingRight=4;overflow=hidden;rotatable=0;points=[[0,0.5],[1,0.5]];portConstraint=eastwest;fillColor=none;strokeColor=default;strokeWidth=0.5;" parent="WocVs_nFNmPU2-qUiD_d-19" vertex="1">
          <mxGeometry y="208" width="160" height="28" as="geometry" />
        </mxCell>
        <mxCell id="WocVs_nFNmPU2-qUiD_d-39" value="fuero" style="text;align=left;verticalAlign=top;spacingLeft=4;spacingRight=4;overflow=hidden;rotatable=0;points=[[0,0.5],[1,0.5]];portConstraint=eastwest;fillColor=none;strokeColor=default;strokeWidth=0.5;" parent="WocVs_nFNmPU2-qUiD_d-19" vertex="1">
          <mxGeometry y="236" width="160" height="28" as="geometry" />
        </mxCell>
        <mxCell id="WocVs_nFNmPU2-qUiD_d-40" value="causasAbiertas" style="text;align=left;verticalAlign=top;spacingLeft=4;spacingRight=4;overflow=hidden;rotatable=0;points=[[0,0.5],[1,0.5]];portConstraint=eastwest;fillColor=none;" parent="WocVs_nFNmPU2-qUiD_d-19" vertex="1">
          <mxGeometry y="264" width="160" height="28" as="geometry" />
        </mxCell>
        <mxCell id="WocVs_nFNmPU2-qUiD_d-41" value="" style="line;html=1;strokeWidth=2;align=left;verticalAlign=middle;spacingTop=-1;spacingLeft=3;spacingRight=3;rotatable=0;labelPosition=right;points=[];portConstraint=eastwest;" parent="WocVs_nFNmPU2-qUiD_d-19" vertex="1">
          <mxGeometry y="292" width="160" height="8" as="geometry" />
        </mxCell>
        <mxCell id="WocVs_nFNmPU2-qUiD_d-64" value="cargarDatos" style="text;align=left;verticalAlign=top;spacingLeft=4;spacingRight=4;overflow=hidden;rotatable=0;points=[[0,0.5],[1,0.5]];portConstraint=eastwest;fillColor=none;" parent="WocVs_nFNmPU2-qUiD_d-19" vertex="1">
          <mxGeometry y="300" width="160" height="26" as="geometry" />
        </mxCell>
        <mxCell id="WocVs_nFNmPU2-qUiD_d-72" style="edgeStyle=orthogonalEdgeStyle;rounded=0;orthogonalLoop=1;jettySize=auto;html=1;endArrow=none;startFill=0;" parent="WIyWlLk6GJQsqaUBKTNV-1" source="WocVs_nFNmPU2-qUiD_d-10" target="WocVs_nFNmPU2-qUiD_d-3" edge="1">
          <mxGeometry relative="1" as="geometry">
            <mxPoint x="554" y="150" as="targetPoint" />
            <Array as="points">
              <mxPoint x="694" y="360" />
              <mxPoint x="604" y="360" />
              <mxPoint x="604" y="85" />
            </Array>
          </mxGeometry>
        </mxCell>
        <mxCell id="WocVs_nFNmPU2-qUiD_d-73" value="1...N" style="edgeLabel;html=1;align=center;verticalAlign=middle;resizable=0;points=[];" parent="WocVs_nFNmPU2-qUiD_d-72" vertex="1" connectable="0">
          <mxGeometry x="-0.1119" y="-4" relative="1" as="geometry">
            <mxPoint x="-4" y="-70" as="offset" />
          </mxGeometry>
        </mxCell>
        <mxCell id="WocVs_nFNmPU2-qUiD_d-10" value="Causa" style="swimlane;fontStyle=0;align=center;verticalAlign=top;childLayout=stackLayout;horizontal=1;startSize=26;horizontalStack=0;resizeParent=1;resizeLast=0;collapsible=1;marginBottom=0;rounded=0;shadow=0;strokeWidth=2;fillColor=#FFFFFF;swimlaneFillColor=#FFFFFF;" parent="WIyWlLk6GJQsqaUBKTNV-1" vertex="1">
          <mxGeometry x="634" y="449" width="160" height="350" as="geometry">
            <mxRectangle x="550" y="140" width="160" height="26" as="alternateBounds" />
          </mxGeometry>
        </mxCell>
        <mxCell id="WocVs_nFNmPU2-qUiD_d-11" value="numeroDeExpediente" style="text;align=left;verticalAlign=top;spacingLeft=4;spacingRight=4;overflow=hidden;rotatable=0;points=[[0,0.5],[1,0.5]];portConstraint=eastwest;fillColor=none;strokeColor=default;strokeWidth=0.5;" parent="WocVs_nFNmPU2-qUiD_d-10" vertex="1">
          <mxGeometry y="26" width="160" height="26" as="geometry" />
        </mxCell>
        <mxCell id="WocVs_nFNmPU2-qUiD_d-12" value="fuero" style="text;align=left;verticalAlign=top;spacingLeft=4;spacingRight=4;overflow=hidden;rotatable=0;points=[[0,0.5],[1,0.5]];portConstraint=eastwest;rounded=0;shadow=0;html=0;fillColor=none;strokeColor=default;strokeWidth=0.5;" parent="WocVs_nFNmPU2-qUiD_d-10" vertex="1">
          <mxGeometry y="52" width="160" height="26" as="geometry" />
        </mxCell>
        <mxCell id="WocVs_nFNmPU2-qUiD_d-13" value="fechaDeInicio" style="text;align=left;verticalAlign=top;spacingLeft=4;spacingRight=4;overflow=hidden;rotatable=0;points=[[0,0.5],[1,0.5]];portConstraint=eastwest;rounded=0;shadow=0;html=0;fillColor=none;strokeColor=default;strokeWidth=0.5;" parent="WocVs_nFNmPU2-qUiD_d-10" vertex="1">
          <mxGeometry y="78" width="160" height="26" as="geometry" />
        </mxCell>
        <mxCell id="WocVs_nFNmPU2-qUiD_d-14" value="juzgado" style="text;align=left;verticalAlign=top;spacingLeft=4;spacingRight=4;overflow=hidden;rotatable=0;points=[[0,0.5],[1,0.5]];portConstraint=eastwest;rounded=0;shadow=0;html=0;fillColor=none;strokeColor=default;strokeWidth=0.5;" parent="WocVs_nFNmPU2-qUiD_d-10" vertex="1">
          <mxGeometry y="104" width="160" height="26" as="geometry" />
        </mxCell>
        <mxCell id="4O37cZlF4Homk0dJ1W0X-3" value="motivosDemanda" style="text;align=left;verticalAlign=top;spacingLeft=4;spacingRight=4;overflow=hidden;rotatable=0;points=[[0,0.5],[1,0.5]];portConstraint=eastwest;rounded=0;shadow=0;html=0;fillColor=none;strokeColor=default;strokeWidth=0.5;" parent="WocVs_nFNmPU2-qUiD_d-10" vertex="1">
          <mxGeometry y="130" width="160" height="26" as="geometry" />
        </mxCell>
        <mxCell id="WocVs_nFNmPU2-qUiD_d-43" value="demandante" style="text;align=left;verticalAlign=top;spacingLeft=4;spacingRight=4;overflow=hidden;rotatable=0;points=[[0,0.5],[1,0.5]];portConstraint=eastwest;rounded=0;shadow=0;html=0;fillColor=none;strokeColor=default;strokeWidth=0.5;" parent="WocVs_nFNmPU2-qUiD_d-10" vertex="1">
          <mxGeometry y="156" width="160" height="26" as="geometry" />
        </mxCell>
        <mxCell id="WocVs_nFNmPU2-qUiD_d-44" value="demandado" style="text;align=left;verticalAlign=top;spacingLeft=4;spacingRight=4;overflow=hidden;rotatable=0;points=[[0,0.5],[1,0.5]];portConstraint=eastwest;rounded=0;shadow=0;html=0;fillColor=none;strokeColor=default;strokeWidth=0.5;" parent="WocVs_nFNmPU2-qUiD_d-10" vertex="1">
          <mxGeometry y="182" width="160" height="26" as="geometry" />
        </mxCell>
        <mxCell id="WocVs_nFNmPU2-qUiD_d-47" value="abogado" style="text;align=left;verticalAlign=top;spacingLeft=4;spacingRight=4;overflow=hidden;rotatable=0;points=[[0,0.5],[1,0.5]];portConstraint=eastwest;rounded=0;shadow=0;html=0;fillColor=none;strokeColor=default;strokeWidth=0.5;" parent="WocVs_nFNmPU2-qUiD_d-10" vertex="1">
          <mxGeometry y="208" width="160" height="26" as="geometry" />
        </mxCell>
        <mxCell id="4O37cZlF4Homk0dJ1W0X-0" value="sentencia" style="text;align=left;verticalAlign=top;spacingLeft=4;spacingRight=4;overflow=hidden;rotatable=0;points=[[0,0.5],[1,0.5]];portConstraint=eastwest;rounded=0;shadow=0;html=0;fillColor=none;strokeColor=default;strokeWidth=0.5;" parent="WocVs_nFNmPU2-qUiD_d-10" vertex="1">
          <mxGeometry y="234" width="160" height="26" as="geometry" />
        </mxCell>
        <mxCell id="4O37cZlF4Homk0dJ1W0X-1" value="montoObtenido" style="text;align=left;verticalAlign=top;spacingLeft=4;spacingRight=4;overflow=hidden;rotatable=0;points=[[0,0.5],[1,0.5]];portConstraint=eastwest;rounded=0;shadow=0;html=0;fillColor=none;strokeColor=default;strokeWidth=0.5;" parent="WocVs_nFNmPU2-qUiD_d-10" vertex="1">
          <mxGeometry y="260" width="160" height="26" as="geometry" />
        </mxCell>
        <mxCell id="4O37cZlF4Homk0dJ1W0X-2" value="fechaDeCierre" style="text;align=left;verticalAlign=top;spacingLeft=4;spacingRight=4;overflow=hidden;rotatable=0;points=[[0,0.5],[1,0.5]];portConstraint=eastwest;rounded=0;shadow=0;html=0;fillColor=none;strokeColor=none;strokeWidth=0.5;" parent="WocVs_nFNmPU2-qUiD_d-10" vertex="1">
          <mxGeometry y="286" width="160" height="26" as="geometry" />
        </mxCell>
        <mxCell id="WocVs_nFNmPU2-qUiD_d-16" value="" style="line;html=1;strokeWidth=2;align=left;verticalAlign=middle;spacingTop=-1;spacingLeft=3;spacingRight=3;rotatable=0;labelPosition=right;points=[];portConstraint=eastwest;fillColor=#FFFFFF;" parent="WocVs_nFNmPU2-qUiD_d-10" vertex="1">
          <mxGeometry y="312" width="160" height="8" as="geometry" />
        </mxCell>
        <mxCell id="WocVs_nFNmPU2-qUiD_d-17" value="cargarDatos" style="text;align=left;verticalAlign=top;spacingLeft=4;spacingRight=4;overflow=hidden;rotatable=0;points=[[0,0.5],[1,0.5]];portConstraint=eastwest;fillColor=none;" parent="WocVs_nFNmPU2-qUiD_d-10" vertex="1">
          <mxGeometry y="320" width="160" height="30" as="geometry" />
        </mxCell>
        <mxCell id="4O37cZlF4Homk0dJ1W0X-17" style="edgeStyle=orthogonalEdgeStyle;rounded=0;orthogonalLoop=1;jettySize=auto;html=1;" parent="WIyWlLk6GJQsqaUBKTNV-1" source="4O37cZlF4Homk0dJ1W0X-7" target="WocVs_nFNmPU2-qUiD_d-26" edge="1">
          <mxGeometry relative="1" as="geometry" />
        </mxCell>
        <mxCell id="4O37cZlF4Homk0dJ1W0X-7" value="AbogadoMonto" style="swimlane;fontStyle=0;align=center;verticalAlign=top;childLayout=stackLayout;horizontal=1;startSize=26;horizontalStack=0;resizeParent=1;resizeLast=0;collapsible=1;marginBottom=0;rounded=0;shadow=0;strokeWidth=2;fillColor=#FFFFFF;swimlaneFillColor=#FFFFFF;" parent="WIyWlLk6GJQsqaUBKTNV-1" vertex="1">
          <mxGeometry x="34" y="739" width="160" height="112" as="geometry">
            <mxRectangle x="550" y="140" width="160" height="26" as="alternateBounds" />
          </mxGeometry>
        </mxCell>
        <mxCell id="4O37cZlF4Homk0dJ1W0X-8" value="montoFijo" style="text;align=left;verticalAlign=top;spacingLeft=4;spacingRight=4;overflow=hidden;rotatable=0;points=[[0,0.5],[1,0.5]];portConstraint=eastwest;fillColor=none;strokeColor=none;strokeWidth=0.5;" parent="4O37cZlF4Homk0dJ1W0X-7" vertex="1">
          <mxGeometry y="26" width="160" height="26" as="geometry" />
        </mxCell>
        <mxCell id="4O37cZlF4Homk0dJ1W0X-10" value="" style="line;html=1;strokeWidth=2;align=left;verticalAlign=middle;spacingTop=-1;spacingLeft=3;spacingRight=3;rotatable=0;labelPosition=right;points=[];portConstraint=eastwest;fillColor=none;" parent="4O37cZlF4Homk0dJ1W0X-7" vertex="1">
          <mxGeometry y="52" width="160" height="8" as="geometry" />
        </mxCell>
        <mxCell id="4O37cZlF4Homk0dJ1W0X-11" value="cargaDatos" style="text;align=left;verticalAlign=top;spacingLeft=4;spacingRight=4;overflow=hidden;rotatable=0;points=[[0,0.5],[1,0.5]];portConstraint=eastwest;fillColor=none;strokeColor=none;" parent="4O37cZlF4Homk0dJ1W0X-7" vertex="1">
          <mxGeometry y="60" width="160" height="26" as="geometry" />
        </mxCell>
        <mxCell id="wk-J22gKXtRtqj58cMsg-7" value="calcularMontos" style="text;align=left;verticalAlign=top;spacingLeft=4;spacingRight=4;overflow=hidden;rotatable=0;points=[[0,0.5],[1,0.5]];portConstraint=eastwest;fillColor=none;strokeColor=default;strokeWidth=0.5;" vertex="1" parent="4O37cZlF4Homk0dJ1W0X-7">
          <mxGeometry y="86" width="160" height="26" as="geometry" />
        </mxCell>
        <mxCell id="4O37cZlF4Homk0dJ1W0X-18" style="edgeStyle=orthogonalEdgeStyle;rounded=0;orthogonalLoop=1;jettySize=auto;html=1;entryX=1;entryY=0.929;entryDx=0;entryDy=0;entryPerimeter=0;exitX=0.572;exitY=0.008;exitDx=0;exitDy=0;exitPerimeter=0;" parent="WIyWlLk6GJQsqaUBKTNV-1" source="4O37cZlF4Homk0dJ1W0X-12" target="WocVs_nFNmPU2-qUiD_d-40" edge="1">
          <mxGeometry relative="1" as="geometry">
            <mxPoint x="349.0000000000002" y="759" as="sourcePoint" />
            <mxPoint x="339" y="610" as="targetPoint" />
            <Array as="points">
              <mxPoint x="345" y="610" />
            </Array>
          </mxGeometry>
        </mxCell>
        <mxCell id="4O37cZlF4Homk0dJ1W0X-12" value="AbogadoPorcentaje" style="swimlane;fontStyle=0;align=center;verticalAlign=top;childLayout=stackLayout;horizontal=1;startSize=26;horizontalStack=0;resizeParent=1;resizeLast=0;collapsible=1;marginBottom=0;rounded=0;shadow=0;strokeWidth=2;fillColor=#FFFFFF;swimlaneFillColor=#FFFFFF;" parent="WIyWlLk6GJQsqaUBKTNV-1" vertex="1">
          <mxGeometry x="254" y="739" width="160" height="112" as="geometry">
            <mxRectangle x="550" y="140" width="160" height="26" as="alternateBounds" />
          </mxGeometry>
        </mxCell>
        <mxCell id="4O37cZlF4Homk0dJ1W0X-13" value="porcentaje" style="text;align=left;verticalAlign=top;spacingLeft=4;spacingRight=4;overflow=hidden;rotatable=0;points=[[0,0.5],[1,0.5]];portConstraint=eastwest;fillColor=none;strokeColor=none;strokeWidth=0.5;" parent="4O37cZlF4Homk0dJ1W0X-12" vertex="1">
          <mxGeometry y="26" width="160" height="26" as="geometry" />
        </mxCell>
        <mxCell id="4O37cZlF4Homk0dJ1W0X-15" value="" style="line;html=1;strokeWidth=2;align=left;verticalAlign=middle;spacingTop=-1;spacingLeft=3;spacingRight=3;rotatable=0;labelPosition=right;points=[];portConstraint=eastwest;fillColor=none;fillStyle=auto;" parent="4O37cZlF4Homk0dJ1W0X-12" vertex="1">
          <mxGeometry y="52" width="160" height="8" as="geometry" />
        </mxCell>
        <mxCell id="4O37cZlF4Homk0dJ1W0X-16" value="cargaDatos" style="text;align=left;verticalAlign=top;spacingLeft=4;spacingRight=4;overflow=hidden;rotatable=0;points=[[0,0.5],[1,0.5]];portConstraint=eastwest;fillColor=none;" parent="4O37cZlF4Homk0dJ1W0X-12" vertex="1">
          <mxGeometry y="60" width="160" height="26" as="geometry" />
        </mxCell>
        <mxCell id="wk-J22gKXtRtqj58cMsg-6" value="calcularMontos" style="text;align=left;verticalAlign=top;spacingLeft=4;spacingRight=4;overflow=hidden;rotatable=0;points=[[0,0.5],[1,0.5]];portConstraint=eastwest;fillColor=none;strokeColor=default;strokeWidth=0.5;" vertex="1" parent="4O37cZlF4Homk0dJ1W0X-12">
          <mxGeometry y="86" width="160" height="26" as="geometry" />
        </mxCell>
        <mxCell id="wk-J22gKXtRtqj58cMsg-4" style="edgeStyle=orthogonalEdgeStyle;rounded=0;orthogonalLoop=1;jettySize=auto;html=1;endArrow=none;startFill=0;entryX=0.467;entryY=1.005;entryDx=0;entryDy=0;entryPerimeter=0;" edge="1" parent="WIyWlLk6GJQsqaUBKTNV-1" source="zkfFHV4jXpPFQw0GAbJ--17" target="4O37cZlF4Homk0dJ1W0X-26">
          <mxGeometry relative="1" as="geometry">
            <mxPoint x="459" y="310" as="targetPoint" />
            <Array as="points">
              <mxPoint x="509" y="340" />
              <mxPoint x="459" y="340" />
            </Array>
            <mxPoint x="509" y="360" as="sourcePoint" />
          </mxGeometry>
        </mxCell>
        <mxCell id="wk-J22gKXtRtqj58cMsg-5" value="1...N" style="edgeLabel;html=1;align=center;verticalAlign=middle;resizable=0;points=[];" vertex="1" connectable="0" parent="wk-J22gKXtRtqj58cMsg-4">
          <mxGeometry x="-0.1119" y="-4" relative="1" as="geometry">
            <mxPoint x="-4" y="4" as="offset" />
          </mxGeometry>
        </mxCell>
        <mxCell id="wk-J22gKXtRtqj58cMsg-8" style="edgeStyle=orthogonalEdgeStyle;rounded=0;orthogonalLoop=1;jettySize=auto;html=1;endArrow=none;startFill=0;exitX=0;exitY=0.5;exitDx=0;exitDy=0;entryX=1.008;entryY=0.237;entryDx=0;entryDy=0;entryPerimeter=0;" edge="1" parent="WIyWlLk6GJQsqaUBKTNV-1" source="4O37cZlF4Homk0dJ1W0X-0" target="WocVs_nFNmPU2-qUiD_d-40">
          <mxGeometry relative="1" as="geometry">
            <mxPoint x="314" y="590" as="targetPoint" />
            <Array as="points">
              <mxPoint x="469" y="696" />
              <mxPoint x="469" y="591" />
            </Array>
            <mxPoint x="559" y="854" as="sourcePoint" />
          </mxGeometry>
        </mxCell>
        <mxCell id="wk-J22gKXtRtqj58cMsg-9" value="1...N" style="edgeLabel;html=1;align=center;verticalAlign=middle;resizable=0;points=[];" vertex="1" connectable="0" parent="wk-J22gKXtRtqj58cMsg-8">
          <mxGeometry x="-0.1119" y="-4" relative="1" as="geometry">
            <mxPoint x="-4" y="-37" as="offset" />
          </mxGeometry>
        </mxCell>
      </root>
    </mxGraphModel>
  </diagram>
</mxfile>
